<?xml version="1.0" encoding="UTF-8" standalone="no"?>
<!-- Created with Inkscape (http://www.inkscape.org/) -->

<svg
   width="115mm"
   height="115mm"
   viewBox="0 0 115 115"
   version="1.1"
   id="svg1"
   xmlns:xlink="http://www.w3.org/1999/xlink"
   xmlns="http://www.w3.org/2000/svg"
   xmlns:svg="http://www.w3.org/2000/svg">
  <defs
     id="defs1">
    <linearGradient
       id="linearGradient142">
      <stop
         style="stop-color:#3b82f6;stop-opacity:0;"
         offset="0"
         id="stop144" />
      <stop
         style="stop-color:#4d93f8;stop-opacity:0.49803922;"
         offset="0.24796748"
         id="stop145" />
      <stop
         style="stop-color:#40b3c8;stop-opacity:0.74901961;"
         offset="0.50029033"
         id="stop146" />
      <stop
         style="stop-color:#28b6a4;stop-opacity:0.8745098;"
         offset="0.74840301"
         id="stop147" />
      <stop
         style="stop-color:#059669;stop-opacity:1;"
         offset="1"
         id="stop143" />
    </linearGradient>
    <linearGradient
       id="swatch138">
      <stop
         style="stop-color:#3b82f6;stop-opacity:1;"
         offset="0"
         id="stop138" />
    </linearGradient>
    <linearGradient
       id="swatch68">
      <stop
         style="stop-color:#3b82f6;stop-opacity:1;"
         offset="0"
         id="stop68" />
    </linearGradient>
    <clipPath
       clipPathUnits="userSpaceOnUse"
       id="clipPath52">
      <path
         id="path52"
         style="stroke-width:0.1;stroke-linecap:square;paint-order:markers fill stroke;stop-color:#000000"
         d="m -880.82767,-187.29769 h 1640.84 v 73.28155 h -1640.84 z" />
    </clipPath>
    <linearGradient
       id="swatch61">
      <stop
         style="stop-color:#3b82f6;stop-opacity:1;"
         offset="0"
         id="stop62" />
    </linearGradient>
    <linearGradient
       id="swatch19">
      <stop
         style="stop-color:#3b82f6;stop-opacity:1;"
         offset="0"
         id="stop20" />
    </linearGradient>
    <clipPath
       clipPathUnits="userSpaceOnUse"
       id="clipPath25">
      <rect
         style="fill:#ff0000;stroke:none;stroke-width:3;stroke-linecap:square;stroke-linejoin:miter;paint-order:stroke markers fill;stop-color:#000000"
         id="rect25-8"
         width="78"
         height="45.033199"
         x="763.61322"
         y="452.82422" />
    </clipPath>
    <radialGradient
       xlink:href="#linearGradient142"
       id="radialGradient144"
       cx="101.96644"
       cy="106.81361"
       fx="101.96644"
       fy="106.81361"
       r="54.554424"
       gradientTransform="matrix(1,0,0,1.0332541,0,-3.5519866)"
       gradientUnits="userSpaceOnUse" />
    <radialGradient
       xlink:href="#linearGradient142"
       id="radialGradient147"
       gradientUnits="userSpaceOnUse"
       gradientTransform="matrix(1,0,0,1.0332541,0,-3.5519866)"
       cx="101.96644"
       cy="106.81361"
       fx="101.96644"
       fy="106.81361"
       r="54.554424" />
    <radialGradient
       xlink:href="#linearGradient142"
       id="radialGradient148"
       gradientUnits="userSpaceOnUse"
       gradientTransform="matrix(1,0,0,1.0332541,0,-3.5519866)"
       cx="101.96644"
       cy="106.81361"
       fx="101.96644"
       fy="106.81361"
       r="54.554424" />
  </defs>
  <g
     id="layer1">
    <g
       id="g114"
       style="mix-blend-mode:normal;fill:url(#radialGradient144);fill-rule:evenodd;stroke:none;stroke-width:3.35492;stroke-linecap:round;stroke-linejoin:round;stroke-dasharray:none;stroke-opacity:1"
       transform="translate(-45.412013,-48.445085)">
      <path
         style="font-size:61.8123px;line-height:0;font-family:'Amsterdam Handwriting';-inkscape-font-specification:'Amsterdam Handwriting, Normal';letter-spacing:-0.154532px;word-spacing:0px;direction:rtl;fill:url(#radialGradient147);fill-opacity:1;fill-rule:evenodd;stroke:none;stroke-width:3.35492;stroke-linecap:round;stroke-linejoin:round;stroke-dasharray:none;stroke-opacity:1;paint-order:stroke fill markers"
         d="m 74.187212,127.39389 c -5.427173,2.56661 -0.71423,0.49342 0.18592,-1.36716 3.381625,-6.98972 4.285473,-9.74158 7.645473,-17.30933 2.44301,-5.37743 4.97066,-10.627679 7.58294,-15.750709 2.66068,-5.14059 5.404595,-10.03067 8.231755,-14.67023 2.81373,-4.669784 5.62189,-8.846316 8.42449,-12.529595 2.83756,-3.731051 5.63054,-6.866976 8.37894,-9.407776 2.79679,-2.558355 5.47767,-4.302728 8.04265,-5.233121 0.77433,-0.280873 1.47873,-0.466201 2.1132,-0.555992 1.98677,-0.334689 3.57003,0.0033 4.7498,1.013978 1.22817,0.99312 2.12682,2.509278 2.69596,4.548474 0.61753,2.021641 0.958,4.494662 1.0214,7.419065 0.11179,2.906849 0.0205,6.115436 -0.27386,9.625752 -0.24597,3.492765 -0.66676,7.224385 -1.26239,11.194865 -0.54723,3.95293 -3.87363,24.159729 -4.74923,29.144049 -0.8756,4.98431 -1.59246,9.63035 -2.15058,13.93811 -0.54469,4.33797 -0.89834,8.22067 -1.06094,11.64811 -0.11421,3.40989 0.1415,6.07155 0.76714,7.98498 0.14518,-0.0527 0.34142,-0.0537 0.58873,-0.003 0.2473,0.0507 0.48384,0.14029 0.7096,0.26893 0.2876,0.1413 0.50931,0.32404 0.66515,0.54822 0.21766,0.23683 0.33181,0.49368 0.34245,0.77052 -0.006,0.49325 -0.20332,0.93341 -0.59327,1.32047 -0.37651,0.41728 -0.83095,0.72247 -1.3633,0.91557 -1.01632,0.36865 -1.99754,0.37369 -2.94368,0.0151 -0.87088,-0.31569 -1.50093,-1.22752 -1.89016,-2.73547 -0.34083,-1.52552 -0.5081,-3.48241 -0.50181,-5.87068 0.0547,-2.40583 0.24796,-5.19527 0.57984,-8.36831 0.39369,-3.16038 0.63925,-6.49501 1.37491,-10.18304 1.57404,-7.89102 -11.10999,-5.27501 -47.311128,3.62786 z m 49.587178,-9.38374 c 0.6871,-4.14401 3.0944,-27.490729 3.69003,-31.461199 0.5822,-4.0007 1.05139,-7.74987 1.40758,-11.24753 0.34276,-3.527879 0.54427,-6.741353 0.60452,-9.640432 0.0468,-2.929295 -0.13237,-5.355553 -0.53757,-7.278774 -0.37022,-1.970993 -1.02562,-3.382401 -1.9662,-4.234223 -0.89217,-0.869376 -2.11259,-1.023192 -3.66126,-0.461446 -0.62914,0.22821 -1.33899,0.590956 -2.12954,1.088239 -2.09468,1.356302 -4.30655,3.334063 -6.6356,5.933281 -2.34247,2.569002 -4.75905,5.603484 -7.24974,9.103449 -2.45572,3.452193 -4.93981,7.283106 -7.452279,11.492726 -2.464071,4.19207 -4.920151,8.59178 -7.368256,13.19911 -2.3997,4.58979 -11.253175,20.049749 -13.497045,24.863709 -2.25729,4.78374 45.62777,-6.38882 44.79536,-1.35691 z"
         id="text1"
         aria-label="A" />
      <path
         d="m 145.50361,124.53719 c 3.80195,-6.09017 6.10777,-11.8459 6.91745,-17.2672 0.80967,-5.45651 0.44004,-10.472975 -1.10891,-15.0494 -1.54894,-4.611628 -4.11878,-8.748012 -7.70951,-12.409152 -3.55553,-3.661139 -7.81513,-6.776628 -12.77879,-9.346467 -4.92846,-2.569839 -10.38497,-4.541222 -16.36952,-5.914149 -5.98455,-1.372927 -12.16273,-2.059391 -18.534519,-2.059391 -2.851465,0 -5.685328,0.140813 -8.501589,0.422439 -2.816261,0.246423 -5.632523,0.668862 -8.448784,1.267318 -0.21122,0.0352 -0.31683,0.14081 -0.31683,0.316829 0.0352,0.140813 0.0704,0.31683 0.10561,0.528049 0.07041,0.176017 0.123212,0.352033 0.158415,0.528049 0.0352,0.140813 -0.01761,0.246423 -0.158415,0.31683 -0.281626,0.105609 -0.65126,0.0352 -1.108903,-0.21122 -0.457643,-0.246423 -0.739269,-0.563252 -0.844878,-0.950488 -0.07041,-0.387236 0.176016,-0.809675 0.739268,-1.267318 0.598456,-0.457643 1.795367,-0.827277 3.590734,-1.108903 2.534635,-0.387236 5.051668,-0.686464 7.5511,-0.897683 2.534635,-0.21122 5.051669,-0.31683 7.551101,-0.31683 5.06927,0 10.01533,0.404838 14.83818,1.214513 4.85805,0.774472 9.45207,1.918578 13.78208,3.432319 4.3652,1.51374 8.37837,3.379513 12.03951,5.597319 3.69635,2.182603 6.91745,4.699636 9.6633,7.551101 2.78106,2.816261 4.99887,5.931751 6.65342,9.346468 1.68975,3.414717 2.67544,7.093458 2.95707,11.036224 0.31683,3.942773 -0.14081,8.131953 -1.37292,12.567563 -1.19691,4.40041 -3.29151,9.02964 -6.28379,13.88769 -2.39382,3.87236 -5.26289,7.44549 -8.6072,10.7194 -3.34431,3.30911 -7.00545,6.31899 -10.98342,9.02964 -3.94276,2.71065 -8.13195,5.10447 -12.56756,7.18146 -4.40041,2.1122 -8.88883,3.90757 -13.46525,5.3861 -4.576426,1.51374 -9.13525,2.71065 -13.676472,3.59074 -4.541221,0.88008 -8.924028,1.42573 -13.14842,1.63695 -6.406995,0.35203 -11.63468,0.088 -15.683056,-0.79208 -4.083579,-0.88008 -7.181466,-2.165 -9.293662,-3.85475 -2.112196,-1.65455 -3.326709,-3.59073 -3.643538,-5.80854 -0.316829,-2.21781 0.0528,-4.48842 1.108903,-6.81184 0.950488,-2.07699 2.27061,-4.06597 3.960367,-5.96695 1.689757,-1.86577 3.643538,-3.62594 5.861344,-5.28049 2.217806,-1.65455 4.646832,-3.2035 7.287077,-4.64683 2.675448,-1.40813 5.456506,-2.71065 8.343174,-3.90756 1.953511,-1.05401 2.797071,-0.90906 1.742557,1.37292 -1.408131,3.2035 -2.728253,6.21338 -3.960368,9.02964 -1.232114,2.85147 -2.341017,5.3861 -3.326709,7.60391 -0.950488,2.21781 -1.742561,4.06598 -2.37622,5.54451 -0.598456,1.47854 -0.985692,2.48183 -1.161708,3.00988 -0.176017,0.49285 -0.492846,0.73927 -0.950488,0.73927 -0.21122,0 -0.387236,-0.10561 -0.528049,-0.31683 -0.140813,-0.17601 -0.158413,-0.47524 -0.0528,-0.89768 0.105609,-0.35203 0.404837,-1.19691 0.897683,-2.53464 0.528049,-1.30252 1.214513,-2.99228 2.059391,-5.06927 0.844879,-2.04179 1.83057,-4.41801 2.957075,-7.12866 1.126505,-2.71065 2.341017,-5.65013 3.643538,-8.81842 -2.710652,1.26732 -5.245287,2.62265 -7.603906,4.06598 -2.358619,1.44333 -4.488416,2.92187 -6.389393,4.43561 -1.900977,1.51374 -3.520327,3.04508 -4.858051,4.59403 -1.372927,1.54894 -2.411424,3.08028 -3.115489,4.59402 -1.196911,2.56984 -1.408131,4.77005 -0.633659,6.60062 0.739269,1.86577 2.147399,3.37951 4.224392,4.54122 2.076993,1.19691 4.62923,2.07699 7.656711,2.64024 3.027481,0.56325 6.213376,0.84488 9.557687,0.84488 4.189189,0 8.607199,-0.40484 13.25403,-1.21451 4.646831,-0.77447 9.311264,-1.91858 13.993299,-3.43232 4.71724,-1.51374 9.36407,-3.34431 13.94049,-5.49171 4.61163,-2.1474 8.94164,-4.57643 12.99001,-7.28708 4.08358,-2.71065 7.79752,-5.66772 11.14183,-8.87122 3.34431,-3.2035 6.14297,-6.61822 8.39598,-10.24415 z"
         id="text2"
         style="font-size:52.8049px;line-height:0;font-family:'Amsterdam Handwriting';-inkscape-font-specification:'Amsterdam Handwriting, Normal';letter-spacing:-0.132012px;word-spacing:0px;direction:rtl;mix-blend-mode:hard-light;fill:url(#radialGradient148);fill-opacity:1;stroke:none;stroke-width:3.35492;stroke-linecap:round;stroke-linejoin:round;stroke-dasharray:none;stroke-opacity:1;paint-order:stroke markers fill"
         transform="scale(1.0016219,0.99838073)"
         aria-label="D" />
    </g>
  </g>
</svg>
